Source: Con Air 1997 720p BluRay DTS x264-ESiR

Subs: Arabic, Brazilian, Croatian, Danish, Dutch, English, French, Greek, Hebrew, Hungarian, Persian, Portuguese, Romanian, Servian, Slovenian, Spanish, Swedish and Vietnamese.

Sample and Screens included.

General
Complete name                    : Con Air-720p MP4 AAC x264 BRRip 1997-CC.mp4
Format                           : MPEG-4
Format profile                   : Base Media
Codec ID                         : isom
File size                        : 2.13 GiB
Duration                         : 1h 55mn
Overall bit rate                 : 2 639 Kbps
Encoded date                     : UTC 2012-03-25 19:01:27


Video
ID                               : 1
Format                           : AVC
Format/Info                      : Advanced Video Codec
Format profile                   : High@L3.1
Format settings, CABAC           : Yes
Format settings, ReFrames        : 5 frames
Codec ID                         : avc1
Codec ID/Info                    : Advanced Video Coding
Duration                         : 1h 55mn
Bit rate mode                    : Variable
Bit rate                         : 2 251 Kbps
Nominal bit rate                 : 2 265 Kbps
Maximum bit rate                 : 10.7 Mbps
Width                            : 1 280 pixels
Height                           : 544 pixels
Display aspect ratio             : 2.35:1
Frame rate mode                  : Variable
Frame rate                       : 23.976 fps
Minimum frame rate               : 19.048 fps
Maximum frame rate               : 24.390 fps
Resolution                       : 24 bits
Colorimetry                      : 4:2:0
Scan type                        : Progressive
Bits/(Pixel*Frame)               : 0.135
Stream size                      : 1.81 GiB (85%)
Writing library                  : x264 core 112

Audio
ID                               : 2
Format                           : AAC
Format/Info                      : Advanced Audio Codec
Format version                   : Version 4
Format profile                   : LC
Format settings, SBR             : No
Codec ID                         : 40
Duration                         : 1h 55mn
Bit rate mode                    : Variable
Bit rate                         : 384 Kbps
Maximum bit rate                 : 486 Kbps
Channel(s)                       : 6 channels
Channel positions                : Front: L C R, Rear: L R, LFE
Sampling rate                    : 48.0 KHz
Resolution                       : 16 bits
Stream size                      : 317 MiB (15%)
Language                         : English
